<svg width="54" height="54" viewBox="0 0 54 54" fill="none" xmlns="http://www.w3.org/2000/svg">
<path d="M38.5714 0H15.4286C6.90761 0 0 6.90761 0 15.4286V38.5714C0 47.0924 6.90761 54 15.4286 54H38.5714C47.0924 54 54 47.0924 54 38.5714V15.4286C54 6.90761 47.0924 0 38.5714 0Z" fill="#0289F7"/>
<g transform="translate(13.5, 15) scale(0.042)" fill="white">
<path d="M96.5 160L96.5 309.5C96.5 326.5 103.2 342.8 115.2 354.8L307.2 546.8C332.2 571.8 372.7 571.8 397.7 546.8L547.2 397.3C572.2 372.3 572.2 331.8 547.2 306.8L355.2 114.8C343.2 102.7 327 96 310 96L160.5 96C125.2 96 96.5 124.7 96.5 160zM208.5 176C226.2 176 240.5 190.3 240.5 208C240.5 225.7 226.2 240 208.5 240C190.8 240 176.5 225.7 176.5 208C176.5 190.3 190.8 176 208.5 176z"/>
</g>
</svg>
