<svg width="54" height="54" viewBox="0 0 54 54" fill="none" xmlns="http://www.w3.org/2000/svg">
<path d="M38.5714 0H15.4286C6.90761 0 0 6.90761 0 15.4286V38.5714C0 47.0924 6.90761 54 15.4286 54H38.5714C47.0924 54 54 47.0924 54 38.5714V15.4286C54 6.90761 47.0924 0 38.5714 0Z" fill="#0289F7"/>
<g transform="translate(13.5, 13.5) scale(0.042)" fill="white">
<path d="M384 224L480 224L480 160L384 160L384 224zM96 224L96 144C96 117.5 117.5 96 144 96L496 96C522.5 96 544 117.5 544 144L544 240C544 266.5 522.5 288 496 288L144 288C117.5 288 96 266.5 96 240L96 224zM256 480L480 480L480 416L256 416L256 480zM96 480L96 400C96 373.5 117.5 352 144 352L496 352C522.5 352 544 373.5 544 400L544 496C544 522.5 522.5 544 496 544L144 544C117.5 544 96 522.5 96 496L96 480z"/>
</g>
</svg>
