<svg width="54" height="54" viewBox="0 0 54 54" fill="none" xmlns="http://www.w3.org/2000/svg">
<path d="M38.5714 0H15.4286C6.90761 0 0 6.90761 0 15.4286V38.5714C0 47.0924 6.90761 54 15.4286 54H38.5714C47.0924 54 54 47.0924 54 38.5714V15.4286C54 6.90761 47.0924 0 38.5714 0Z" fill="#0289F7" fill-opacity="0.09"/>
<g transform="translate(13.5, 15) scale(0.047)" fill="#0981E3">
<path d="M520 200c30.9 0 56 25.1 56 56s-25.1 56-56 56l-127.3 0-159.2 173.6c-6.1 6.6-14.6 10.4-23.6 10.4l-43.7 0c-10.9 0-18.6-10.7-15.2-21.1l54.3-162.9-99.7 0-52.8 66c-3 3.8-7.6 6-12.5 6l-19.8 0c-10.4 0-18-9.8-15.5-19.9L32 256 5 147.9C2.4 137.8 10.1 128 20.5 128l19.8 0c4.9 0 9.5 2.2 12.5 6l52.8 66 99.7 0-54.3-162.9C147.6 26.7 155.3 16 166.2 16l43.7 0c9 0 17.5 3.8 23.6 10.4L392.7 200 520 200z"/>
</g>
</svg>
