<svg width="54" height="54" viewBox="0 0 54 54" fill="none" xmlns="http://www.w3.org/2000/svg">
<path d="M38.5714 0H15.4286C6.90761 0 0 6.90761 0 15.4286V38.5714C0 47.0924 6.90761 54 15.4286 54H38.5714C47.0924 54 54 47.0924 54 38.5714V15.4286C54 6.90761 47.0924 0 38.5714 0Z" fill="#0289F7" fill-opacity="0.09"/>
<g transform="translate(17, 13.5) scale(0.053)" fill="#0981E3">
<path d="M232 96l-80 0c-13.3 0-24-10.7-24-24s10.7-24 24-24l80 0c13.3 0 24 10.7 24 24s-10.7 24-24 24zm0 48c37.1 0 67.6-28 71.6-64L320 80c8.8 0 16 7.2 16 16l0 352c0 8.8-7.2 16-16 16L64 464c-8.8 0-16-7.2-16-16L48 96c0-8.8 7.2-16 16-16l16.4 0c4 36 34.5 64 71.6 64l80 0zM291.9 32C279 12.7 257 0 232 0L152 0c-25 0-47 12.7-59.9 32L64 32C28.7 32 0 60.7 0 96L0 448c0 35.3 28.7 64 64 64l256 0c35.3 0 64-28.7 64-64l0-352c0-35.3-28.7-64-64-64l-28.1 0z"/>
</g>
</svg>
