<svg width="54" height="54" viewBox="0 0 54 54" fill="none" xmlns="http://www.w3.org/2000/svg">
<path d="M38.5714 0H15.4286C6.90761 0 0 6.90761 0 15.4286V38.5714C0 47.0924 6.90761 54 15.4286 54H38.5714C47.0924 54 54 47.0924 54 38.5714V15.4286C54 6.90761 47.0924 0 38.5714 0Z" fill="#0289F7" fill-opacity="0.09"/>
<g transform="translate(13.5, 15) scale(0.047)" fill="#0981E3">
<path d="M0 96C0 60.7 28.7 32 64 32l288 0c35.3 0 64 28.7 64 64l0 32 50.7 0c17 0 33.3 6.7 45.3 18.7L557.3 192c12 12 18.7 28.3 18.7 45.3L576 384c0 35.3-28.7 64-64 64l-3.3 0c-10.4 36.9-44.4 64-84.7 64s-74.2-27.1-84.7-64l-102.6 0c-10.4 36.9-44.4 64-84.7 64s-74.2-27.1-84.7-64L64 448c-35.3 0-64-28.7-64-64L0 96zM512 288l0-50.7-45.3-45.3-50.7 0 0 96 96 0zM192 424a40 40 0 1 0 -80 0 40 40 0 1 0 80 0zm232 40a40 40 0 1 0 0-80 40 40 0 1 0 0 80z"/>
</g>
</svg>
