<svg width="54" height="54" viewBox="0 0 54 54" fill="none" xmlns="http://www.w3.org/2000/svg">
<path d="M38.5714 0H15.4286C6.90761 0 0 6.90761 0 15.4286V38.5714C0 47.0924 6.90761 54 15.4286 54H38.5714C47.0924 54 54 47.0924 54 38.5714V15.4286C54 6.90761 47.0924 0 38.5714 0Z" fill="#0289F7" fill-opacity="0.09"/>
<g transform="translate(13.5, 15) scale(0.047)" fill="#0981E3">
<path d="M0 142.1L0 480c0 17.7 14.3 32 32 32s32-14.3 32-32l0-240c0-17.7 14.3-32 32-32l384 0c17.7 0 32 14.3 32 32l0 240c0 17.7 14.3 32 32 32s32-14.3 32-32l0-337.9c0-27.5-17.6-52-43.8-60.7L303.2 5.1c-9.9-3.3-20.5-3.3-30.4 0L43.8 81.4C17.6 90.1 0 114.6 0 142.1zM464 256l-352 0 0 64 352 0 0-64zM112 416l352 0 0-64-352 0 0 64zm352 32l-352 0 0 64 352 0 0-64z"/>
</g>
</svg>
